<svg xmlns="http://www.w3.org/2000/svg" viewBox="0 0 960 402" font-family="Segoe UI, Malgun Gothic, Apple SD Gothic Neo, sans-serif" role="img" aria-label="시계별 측정 비교: 본 시스템(TimeGrapher) vs Weishi — 시계 4는 불량으로 측정 제외">
<rect x="0" y="0" width="960" height="402" fill="#ffffff"/>
<text x="480" y="26" text-anchor="middle" font-size="15.5" font-weight="700" fill="#1e293b">시계별 측정 비교: 본 시스템(TimeGrapher) vs Weishi — 시계 4는 불량으로 측정 제외</text>
<rect x="324.5" y="42.0" width="16" height="11" rx="2.5" fill="#2563eb"/>
<text x="346.5" y="51.0" font-size="12" fill="#1e293b">본 시스템 (TimeGrapher)</text>
<rect x="500.5" y="42.0" width="16" height="11" rx="2.5" fill="#ea7317"/>
<text x="522.5" y="51.0" font-size="12" fill="#1e293b">Weishi Timegrapher</text>
<text x="184" y="72" text-anchor="middle" font-size="13" font-weight="600" fill="#1e293b">일오차 (s/d)</text>
<line x1="62.0" y1="312.0" x2="306.7" y2="312.0" stroke="#e2e8f0" stroke-width="1"/>
<text x="55.0" y="315.5" text-anchor="end" font-size="10" fill="#64748b">0</text>
<line x1="62.0" y1="265.2" x2="306.7" y2="265.2" stroke="#e2e8f0" stroke-width="1"/>
<text x="55.0" y="268.7" text-anchor="end" font-size="10" fill="#64748b">10</text>
<line x1="62.0" y1="218.4" x2="306.7" y2="218.4" stroke="#e2e8f0" stroke-width="1"/>
<text x="55.0" y="221.9" text-anchor="end" font-size="10" fill="#64748b">20</text>
<line x1="62.0" y1="171.6" x2="306.7" y2="171.6" stroke="#e2e8f0" stroke-width="1"/>
<text x="55.0" y="175.1" text-anchor="end" font-size="10" fill="#64748b">30</text>
<line x1="62.0" y1="124.8" x2="306.7" y2="124.8" stroke="#e2e8f0" stroke-width="1"/>
<text x="55.0" y="128.3" text-anchor="end" font-size="10" fill="#64748b">40</text>
<line x1="62.0" y1="78.0" x2="306.7" y2="78.0" stroke="#e2e8f0" stroke-width="1"/>
<text x="55.0" y="81.5" text-anchor="end" font-size="10" fill="#64748b">50</text>
<line x1="62.0" y1="312.0" x2="306.7" y2="312.0" stroke="#94a3b8" stroke-width="1.5"/>
<line x1="91.8" y1="271.8" x2="91.8" y2="273.2" stroke="#2563eb" stroke-width="8" stroke-linecap="round" opacity="0.92"/>
<line x1="113.8" y1="269.9" x2="113.8" y2="274.6" stroke="#ea7317" stroke-width="8" stroke-linecap="round" opacity="0.92"/>
<text x="102.8" y="330.0" text-anchor="middle" font-size="11" fill="#1e293b">시계 1</text>
<line x1="173.3" y1="259.6" x2="173.3" y2="288.6" stroke="#2563eb" stroke-width="8" stroke-linecap="round" opacity="0.92"/>
<line x1="195.3" y1="255.8" x2="195.3" y2="279.2" stroke="#ea7317" stroke-width="8" stroke-linecap="round" opacity="0.92"/>
<text x="184.3" y="330.0" text-anchor="middle" font-size="11" fill="#1e293b">시계 2</text>
<line x1="254.9" y1="100.0" x2="254.9" y2="120.6" stroke="#2563eb" stroke-width="8" stroke-linecap="round" opacity="0.92"/>
<line x1="276.9" y1="101.4" x2="276.9" y2="120.1" stroke="#ea7317" stroke-width="8" stroke-linecap="round" opacity="0.92"/>
<text x="265.9" y="330.0" text-anchor="middle" font-size="11" fill="#1e293b">시계 3</text>
<text x="184" y="368" text-anchor="middle" font-size="10" fill="#64748b">허용오차 ±1 s/d</text>
<text x="495" y="72" text-anchor="middle" font-size="13" font-weight="600" fill="#1e293b">진폭 (°)</text>
<line x1="372.7" y1="312.0" x2="617.3" y2="312.0" stroke="#e2e8f0" stroke-width="1"/>
<text x="365.7" y="315.5" text-anchor="end" font-size="10" fill="#64748b">220</text>
<line x1="372.7" y1="253.5" x2="617.3" y2="253.5" stroke="#e2e8f0" stroke-width="1"/>
<text x="365.7" y="257.0" text-anchor="end" font-size="10" fill="#64748b">250</text>
<line x1="372.7" y1="195.0" x2="617.3" y2="195.0" stroke="#e2e8f0" stroke-width="1"/>
<text x="365.7" y="198.5" text-anchor="end" font-size="10" fill="#64748b">280</text>
<line x1="372.7" y1="136.5" x2="617.3" y2="136.5" stroke="#e2e8f0" stroke-width="1"/>
<text x="365.7" y="140.0" text-anchor="end" font-size="10" fill="#64748b">310</text>
<line x1="372.7" y1="78.0" x2="617.3" y2="78.0" stroke="#e2e8f0" stroke-width="1"/>
<text x="365.7" y="81.5" text-anchor="end" font-size="10" fill="#64748b">340</text>
<line x1="372.7" y1="312.0" x2="617.3" y2="312.0" stroke="#94a3b8" stroke-width="1.5"/>
<line x1="402.4" y1="89.7" x2="402.4" y2="95.5" stroke="#2563eb" stroke-width="8" stroke-linecap="round" opacity="0.92"/>
<line x1="424.4" y1="89.7" x2="424.4" y2="93.6" stroke="#ea7317" stroke-width="8" stroke-linecap="round" opacity="0.92"/>
<text x="413.4" y="330.0" text-anchor="middle" font-size="11" fill="#1e293b">시계 1</text>
<line x1="484.0" y1="117.0" x2="484.0" y2="156.0" stroke="#2563eb" stroke-width="8" stroke-linecap="round" opacity="0.92"/>
<line x1="506.0" y1="107.2" x2="506.0" y2="126.8" stroke="#ea7317" stroke-width="8" stroke-linecap="round" opacity="0.92"/>
<text x="495.0" y="330.0" text-anchor="middle" font-size="11" fill="#1e293b">시계 2</text>
<line x1="565.6" y1="280.8" x2="565.6" y2="302.2" stroke="#2563eb" stroke-width="8" stroke-linecap="round" opacity="0.92"/>
<line x1="587.6" y1="276.9" x2="587.6" y2="290.6" stroke="#ea7317" stroke-width="8" stroke-linecap="round" opacity="0.92"/>
<text x="576.6" y="330.0" text-anchor="middle" font-size="11" fill="#1e293b">시계 3</text>
<text x="495" y="368" text-anchor="middle" font-size="10" fill="#64748b">허용오차 ±1°</text>
<text x="806" y="72" text-anchor="middle" font-size="13" font-weight="600" fill="#1e293b">비트 에러 (ms)</text>
<line x1="683.3" y1="312.0" x2="928.0" y2="312.0" stroke="#e2e8f0" stroke-width="1"/>
<text x="676.3" y="315.5" text-anchor="end" font-size="10" fill="#64748b">0.0</text>
<line x1="683.3" y1="253.5" x2="928.0" y2="253.5" stroke="#e2e8f0" stroke-width="1"/>
<text x="676.3" y="257.0" text-anchor="end" font-size="10" fill="#64748b">0.4</text>
<line x1="683.3" y1="195.0" x2="928.0" y2="195.0" stroke="#e2e8f0" stroke-width="1"/>
<text x="676.3" y="198.5" text-anchor="end" font-size="10" fill="#64748b">0.8</text>
<line x1="683.3" y1="136.5" x2="928.0" y2="136.5" stroke="#e2e8f0" stroke-width="1"/>
<text x="676.3" y="140.0" text-anchor="end" font-size="10" fill="#64748b">1.2</text>
<line x1="683.3" y1="78.0" x2="928.0" y2="78.0" stroke="#e2e8f0" stroke-width="1"/>
<text x="676.3" y="81.5" text-anchor="end" font-size="10" fill="#64748b">1.6</text>
<line x1="683.3" y1="312.0" x2="928.0" y2="312.0" stroke="#94a3b8" stroke-width="1.5"/>
<line x1="713.1" y1="268.1" x2="713.1" y2="282.8" stroke="#2563eb" stroke-width="8" stroke-linecap="round" opacity="0.92"/>
<line x1="735.1" y1="282.8" x2="735.1" y2="282.8" stroke="#ea7317" stroke-width="8" stroke-linecap="round" opacity="0.92"/>
<text x="724.1" y="330.0" text-anchor="middle" font-size="11" fill="#1e293b">시계 1</text>
<line x1="794.7" y1="297.4" x2="794.7" y2="297.4" stroke="#2563eb" stroke-width="8" stroke-linecap="round" opacity="0.92"/>
<line x1="816.7" y1="312.0" x2="816.7" y2="312.0" stroke="#ea7317" stroke-width="8" stroke-linecap="round" opacity="0.92"/>
<text x="805.7" y="330.0" text-anchor="middle" font-size="11" fill="#1e293b">시계 2</text>
<line x1="876.2" y1="107.3" x2="876.2" y2="121.9" stroke="#2563eb" stroke-width="8" stroke-linecap="round" opacity="0.92"/>
<line x1="898.2" y1="121.9" x2="898.2" y2="136.5" stroke="#ea7317" stroke-width="8" stroke-linecap="round" opacity="0.92"/>
<text x="887.2" y="330.0" text-anchor="middle" font-size="11" fill="#1e293b">시계 3</text>
<text x="806" y="368" text-anchor="middle" font-size="10" fill="#64748b">허용오차 ±0.1 ms</text>
<text x="480" y="390" text-anchor="middle" font-size="10.5" font-style="italic" fill="#64748b">진폭은 use C-onset timing 옵션을 켜고 측정 (Weishi와 동일 기준)</text>
</svg>